# xmcd
#
# Track frame offsets: 
#        150
#        24153
#        44642
#        67229
#        100335
#        121545
#        162556
#        178280
#        202229
#        225180
#
# Disc length: 3362 seconds
#
# Revision: 0
# Processed by: cddbd v1.5.2PL0 Copyright (c) Steve Scherf et al.
# Submitted via: ExactAudioCopy v1.0b4
#
DISCID=890d200a
DTITLE=Jessy Martens and Band - Touch My Blues Away
DYEAR=2015
DGENRE=Blues
TTITLE0=You're Not The One I Need
TTITLE1=One Minute Love
TTITLE2=Hey Mister
TTITLE3=I Don't Need No Doctor
TTITLE4=Pack Of Lies
TTITLE5=Touch My Blues Away
TTITLE6=Stranger
TTITLE7=Little Mama Don't Play
TTITLE8=Brand New Ride
TTITLE9=How Beautiful
EXTD=
EXTT0=
EXTT1=
EXTT2=
EXTT3=
EXTT4=
EXTT5=
EXTT6=
EXTT7=
EXTT8=
EXTT9=
PLAYORDER=
